<svg width="426" height="124" viewBox="0 0 426 124" fill="none" xmlns="http://www.w3.org/2000/svg">
<path d="M103.763 87V40.6875H117.9C122.925 40.6875 126.725 41.975 129.3 44.55C131.875 47.125 133.163 50.525 133.163 54.75C133.163 58.925 131.875 62.2875 129.3 64.8375C126.725 67.3625 122.925 68.625 117.9 68.625H108.188V87H103.763ZM108.188 64.8375H117.9C121.425 64.8375 124.1 63.95 125.925 62.175C127.775 60.375 128.7 57.9 128.7 54.75C128.7 51.55 127.775 49.025 125.925 47.175C124.1 45.325 121.425 44.4 117.9 44.4H108.188V64.8375ZM146.74 42.0375C145.815 42.0375 145.065 41.75 144.49 41.175C143.915 40.6 143.628 39.875 143.628 39C143.628 38.15 143.915 37.475 144.49 36.975C145.065 36.45 145.815 36.1875 146.74 36.1875C147.715 36.1875 148.478 36.45 149.028 36.975C149.578 37.475 149.853 38.15 149.853 39C149.853 39.875 149.578 40.6 149.028 41.175C148.478 41.75 147.715 42.0375 146.74 42.0375ZM144.565 87V51.375H148.915V87H144.565ZM191.381 87V66.0375C191.381 62.2625 190.468 59.375 188.643 57.375C186.843 55.375 184.356 54.375 181.181 54.375C178.856 54.375 176.843 55.0125 175.143 56.2875C173.468 57.5625 172.181 59.35 171.281 61.65C170.406 63.95 169.968 66.6375 169.968 69.7125H168.056C168.056 65.8125 168.581 62.4375 169.631 59.5875C170.706 56.7125 172.281 54.5 174.356 52.95C176.456 51.375 179.056 50.5875 182.156 50.5875C184.906 50.5875 187.281 51.2 189.281 52.425C191.306 53.65 192.868 55.425 193.968 57.75C195.068 60.05 195.618 62.8125 195.618 66.0375V87H191.381ZM165.618 87V51.4125H169.293L169.968 60.1875V87H165.618ZM222.037 87.825C218.937 87.825 216.199 87.0375 213.824 85.4625C211.474 83.8625 209.624 81.675 208.274 78.9C206.924 76.1 206.249 72.9125 206.249 69.3375C206.249 65.4375 206.912 62.0875 208.237 59.2875C209.587 56.4875 211.437 54.3375 213.787 52.8375C216.162 51.3375 218.912 50.5875 222.037 50.5875C224.662 50.5875 226.887 51.125 228.712 52.2C230.562 53.25 232.049 54.6875 233.174 56.5125C234.299 58.3375 235.087 60.4 235.537 62.7C236.012 65 236.199 67.375 236.099 69.825H209.812V66.825H233.437L231.712 67.95C231.787 66.325 231.687 64.7125 231.412 63.1125C231.162 61.4875 230.674 60 229.949 58.65C229.249 57.3 228.262 56.2125 226.987 55.3875C225.712 54.5625 224.074 54.15 222.074 54.15C219.524 54.15 217.399 54.8125 215.699 56.1375C213.999 57.4375 212.724 59.1375 211.874 61.2375C211.049 63.3125 210.637 65.5375 210.637 67.9125V69.75C210.637 72.475 211.049 74.925 211.874 77.1C212.724 79.275 213.987 81 215.662 82.275C217.362 83.55 219.487 84.1875 222.037 84.1875C224.662 84.1875 226.799 83.55 228.449 82.275C230.124 80.975 231.124 79.075 231.449 76.575H236.099C235.724 78.95 234.887 80.975 233.587 82.65C232.312 84.325 230.687 85.6125 228.712 86.5125C226.737 87.3875 224.512 87.825 222.037 87.825ZM263.353 87.825C260.903 87.825 258.691 87.2125 256.716 85.9875C254.766 84.7375 253.216 82.9375 252.066 80.5875C250.916 78.2375 250.341 75.4125 250.341 72.1125H252.366C252.366 74.6875 252.878 76.8625 253.903 78.6375C254.953 80.3875 256.291 81.7125 257.916 82.6125C259.541 83.5125 261.266 83.9625 263.091 83.9625C265.116 83.9625 266.991 83.375 268.716 82.2C270.441 81.025 271.828 79.325 272.878 77.1C273.928 74.875 274.453 72.2 274.453 69.075C274.453 65.975 273.928 63.3375 272.878 61.1625C271.828 58.9875 270.441 57.3125 268.716 56.1375C266.991 54.9625 265.091 54.375 263.016 54.375C261.191 54.375 259.466 54.825 257.841 55.725C256.216 56.625 254.891 57.9625 253.866 59.7375C252.866 61.4875 252.366 63.675 252.366 66.3H250.341C250.341 63.025 250.903 60.225 252.028 57.9C253.178 55.55 254.741 53.75 256.716 52.5C258.716 51.225 261.003 50.5875 263.578 50.5875C266.353 50.5875 268.903 51.3375 271.228 52.8375C273.578 54.3125 275.453 56.4375 276.853 59.2125C278.278 61.9625 278.991 65.25 278.991 69.075C278.991 72.9 278.278 76.2125 276.853 79.0125C275.428 81.8125 273.528 83.9875 271.153 85.5375C268.778 87.0625 266.178 87.825 263.353 87.825ZM248.016 87V36H252.366V78.9L251.316 87H248.016ZM291.668 87V36H296.018V87H291.668ZM333.449 87L332.886 79.6125V63.8625C332.886 60.2875 332.111 57.75 330.561 56.25C329.011 54.75 326.799 54 323.924 54C322.324 54 320.836 54.2375 319.461 54.7125C318.086 55.1625 316.986 55.9 316.161 56.925C315.336 57.925 314.924 59.25 314.924 60.9H309.974C309.974 58.375 310.599 56.3625 311.849 54.8625C313.099 53.3375 314.774 52.25 316.874 51.6C318.999 50.925 321.349 50.5875 323.924 50.5875C326.474 50.5875 328.749 51.0375 330.749 51.9375C332.749 52.8125 334.324 54.2375 335.474 56.2125C336.649 58.1625 337.236 60.7375 337.236 63.9375V87H333.449ZM321.074 87.825C318.224 87.825 315.874 87.3125 314.024 86.2875C312.174 85.2375 310.799 83.9 309.899 82.275C308.999 80.65 308.549 78.975 308.549 77.25C308.549 74.75 309.149 72.75 310.349 71.25C311.574 69.75 313.199 68.6625 315.224 67.9875C317.274 67.3125 319.511 66.975 321.936 66.975C323.761 66.975 325.649 67.1875 327.599 67.6125C329.574 68.0125 331.461 68.575 333.261 69.3V72.225C331.711 71.55 329.924 71.0125 327.899 70.6125C325.874 70.2125 324.036 70.0125 322.386 70.0125C319.836 70.0125 317.661 70.5625 315.861 71.6625C314.061 72.7625 313.161 74.625 313.161 77.25C313.161 79.225 313.824 80.9 315.149 82.275C316.499 83.65 318.661 84.3375 321.636 84.3375C323.661 84.3375 325.524 83.85 327.224 82.875C328.924 81.9 330.286 80.6875 331.311 79.2375C332.361 77.7875 332.886 76.325 332.886 74.85H333.974C333.974 77.125 333.436 79.25 332.361 81.225C331.311 83.2 329.811 84.8 327.861 86.025C325.936 87.225 323.674 87.825 321.074 87.825ZM364.252 87.825C361.427 87.825 358.814 87.0625 356.414 85.5375C354.039 83.9875 352.139 81.8125 350.714 79.0125C349.289 76.2125 348.577 72.9 348.577 69.075C348.577 65.25 349.277 61.9625 350.677 59.2125C352.102 56.4375 353.977 54.3125 356.302 52.8375C358.652 51.3375 361.214 50.5875 363.989 50.5875C366.564 50.5875 368.852 51.225 370.852 52.5C372.852 53.75 374.414 55.55 375.539 57.9C376.664 60.225 377.227 63.025 377.227 66.3H375.239C375.239 63.675 374.727 61.4875 373.702 59.7375C372.702 57.9625 371.389 56.625 369.764 55.725C368.139 54.825 366.402 54.375 364.552 54.375C362.527 54.375 360.639 54.9625 358.889 56.1375C357.164 57.3125 355.764 58.9875 354.689 61.1625C353.639 63.3375 353.114 65.975 353.114 69.075C353.114 72.2 353.639 74.875 354.689 77.1C355.739 79.325 357.139 81.025 358.889 82.2C360.639 83.375 362.539 83.9625 364.589 83.9625C366.339 83.9625 368.027 83.5125 369.652 82.6125C371.277 81.7125 372.614 80.3875 373.664 78.6375C374.714 76.8625 375.239 74.6875 375.239 72.1125H377.227C377.227 75.4125 376.652 78.2375 375.502 80.5875C374.377 82.9375 372.827 84.7375 370.852 85.9875C368.902 87.2125 366.702 87.825 364.252 87.825ZM375.877 87L375.239 78.9V36H379.552V87H375.877ZM407.266 87.825C404.166 87.825 401.429 87.0375 399.054 85.4625C396.704 83.8625 394.854 81.675 393.504 78.9C392.154 76.1 391.479 72.9125 391.479 69.3375C391.479 65.4375 392.141 62.0875 393.466 59.2875C394.816 56.4875 396.666 54.3375 399.016 52.8375C401.391 51.3375 404.141 50.5875 407.266 50.5875C409.891 50.5875 412.116 51.125 413.941 52.2C415.791 53.25 417.279 54.6875 418.404 56.5125C419.529 58.3375 420.316 60.4 420.766 62.7C421.241 65 421.429 67.375 421.329 69.825H395.041V66.825H418.666L416.941 67.95C417.016 66.325 416.916 64.7125 416.641 63.1125C416.391 61.4875 415.904 60 415.179 58.65C414.479 57.3 413.491 56.2125 412.216 55.3875C410.941 54.5625 409.304 54.15 407.304 54.15C404.754 54.15 402.629 54.8125 400.929 56.1375C399.229 57.4375 397.954 59.1375 397.104 61.2375C396.279 63.3125 395.866 65.5375 395.866 67.9125V69.75C395.866 72.475 396.279 74.925 397.104 77.1C397.954 79.275 399.216 81 400.891 82.275C402.591 83.55 404.716 84.1875 407.266 84.1875C409.891 84.1875 412.029 83.55 413.679 82.275C415.354 80.975 416.354 79.075 416.679 76.575H421.329C420.954 78.95 420.116 80.975 418.816 82.65C417.541 84.325 415.916 85.6125 413.941 86.5125C411.966 87.3875 409.741 87.825 407.266 87.825Z" fill="white"/>
<path d="M376.553 116L379.755 106.737H380.783L383.94 116H383.025L382.17 113.427H378.353L377.46 116H376.553ZM378.578 112.722H381.93L380.25 107.817L378.578 112.722ZM385.94 116V105.8H386.81V116H385.94ZM393.014 116.165C392.494 116.165 392.036 116.043 391.641 115.797C391.251 115.552 390.946 115.2 390.726 114.74C390.511 114.28 390.404 113.727 390.404 113.082H390.824C390.824 113.587 390.924 114.012 391.124 114.357C391.329 114.697 391.591 114.955 391.911 115.13C392.236 115.305 392.579 115.392 392.939 115.392C393.334 115.392 393.706 115.277 394.056 115.047C394.406 114.817 394.691 114.482 394.911 114.042C395.131 113.597 395.241 113.057 395.241 112.422C395.241 111.797 395.136 111.267 394.926 110.832C394.716 110.392 394.436 110.057 394.086 109.827C393.741 109.592 393.361 109.475 392.946 109.475C392.586 109.475 392.244 109.565 391.919 109.745C391.594 109.925 391.329 110.19 391.124 110.54C390.924 110.885 390.824 111.315 390.824 111.83H390.404C390.404 111.17 390.516 110.607 390.741 110.142C390.971 109.677 391.284 109.325 391.679 109.085C392.074 108.84 392.521 108.717 393.021 108.717C393.576 108.717 394.091 108.867 394.566 109.167C395.041 109.462 395.424 109.887 395.714 110.442C396.004 110.992 396.149 111.652 396.149 112.422C396.149 113.202 396.001 113.872 395.706 114.432C395.416 114.992 395.031 115.422 394.551 115.722C394.076 116.018 393.564 116.165 393.014 116.165ZM389.954 119.51V108.882H390.689L390.824 110.502V119.51H389.954ZM403.69 116V111.807C403.69 111.052 403.508 110.475 403.143 110.075C402.783 109.675 402.285 109.475 401.65 109.475C401.185 109.475 400.783 109.602 400.443 109.857C400.108 110.112 399.85 110.47 399.67 110.93C399.495 111.39 399.408 111.927 399.408 112.542H399.025C399.025 111.762 399.13 111.087 399.34 110.517C399.555 109.942 399.87 109.5 400.285 109.19C400.705 108.875 401.225 108.717 401.845 108.717C402.395 108.717 402.87 108.84 403.27 109.085C403.675 109.33 403.988 109.685 404.208 110.15C404.428 110.61 404.538 111.162 404.538 111.807V116H403.69ZM398.538 116V105.8H399.408V116H398.538ZM411.787 116L411.674 114.522V111.372C411.674 110.657 411.519 110.15 411.209 109.85C410.899 109.55 410.457 109.4 409.882 109.4C409.562 109.4 409.264 109.447 408.989 109.542C408.714 109.632 408.494 109.78 408.329 109.985C408.164 110.185 408.082 110.45 408.082 110.78H407.092C407.092 110.275 407.217 109.872 407.467 109.572C407.717 109.267 408.052 109.05 408.472 108.92C408.897 108.785 409.367 108.717 409.882 108.717C410.392 108.717 410.847 108.807 411.247 108.987C411.647 109.162 411.962 109.447 412.192 109.842C412.427 110.232 412.544 110.747 412.544 111.387V116H411.787ZM409.312 116.165C408.742 116.165 408.272 116.063 407.902 115.857C407.532 115.647 407.257 115.38 407.077 115.055C406.897 114.73 406.807 114.395 406.807 114.05C406.807 113.55 406.927 113.15 407.167 112.85C407.412 112.55 407.737 112.332 408.142 112.197C408.552 112.062 408.999 111.995 409.484 111.995C409.849 111.995 410.227 112.037 410.617 112.122C411.012 112.202 411.389 112.315 411.749 112.46V113.045C411.439 112.91 411.082 112.802 410.677 112.722C410.272 112.642 409.904 112.602 409.574 112.602C409.064 112.602 408.629 112.712 408.269 112.932C407.909 113.152 407.729 113.525 407.729 114.05C407.729 114.445 407.862 114.78 408.127 115.055C408.397 115.33 408.829 115.467 409.424 115.467C409.829 115.467 410.202 115.37 410.542 115.175C410.882 114.98 411.154 114.737 411.359 114.447C411.569 114.157 411.674 113.865 411.674 113.57H411.892C411.892 114.025 411.784 114.45 411.569 114.845C411.359 115.24 411.059 115.56 410.669 115.805C410.284 116.045 409.832 116.165 409.312 116.165Z" fill="#FFD600"/>
<rect x="367.5" y="99.5" width="54" height="23" rx="11.5" stroke="#FFD600"/>
<rect y="83.0769" width="26.0907" height="56.5685" transform="rotate(-45 0 83.0769)" fill="#2D3441"/>
<rect x="43.0769" y="83.0769" width="26.1086" height="26.1086" transform="rotate(-45 43.0769 83.0769)" fill="#77C1D2"/>
<rect x="21.5385" y="18.4615" width="26.1086" height="26.1086" transform="rotate(-45 21.5385 18.4615)" fill="#77C1D2"/>
<rect y="40" width="26.1086" height="26.1086" transform="rotate(-45 0 40)" fill="#77C1D2"/>
<rect x="21.5385" y="61.5385" width="56.5685" height="26.1086" transform="rotate(-45 21.5385 61.5385)" fill="#2D3441"/>
</svg>
